# xmcd
#
# Track frame offsets: 
#        150
#        23475
#        45910
#        72152
#
# Disc length: 1273 seconds
#
# Revision: 2
# Processed by: cddbd v1.5.2PL0 Copyright (c) Steve Scherf et al.
# Submitted via: ExactAudioCopy v1.1
#
DISCID=2304f704
DTITLE=???? - ??????? 2003????????????? ?3? -????????????-
DYEAR=2005
DGENRE=Anime
TTITLE0=????????????(CV.????) - ????????
TTITLE1=????????????(CV.????) - ????????
TTITLE2=????????????(CV.????) - ??????????????
TTITLE3=????????????(CV.????) - ?????????(Instrumental)
EXTD=YEAR: 2005
EXTT0=
EXTT1=
EXTT2=
EXTT3=
PLAYORDER=
